<svg xmlns="http://www.w3.org/2000/svg" xmlns:xlink="http://www.w3.org/1999/xlink" width="1500" height="1500" viewBox="0 0 1500 1500"><defs><style>.cls-1{fill:#fff;}.cls-2{fill:url(#linear-gradient);}.cls-3{fill:url(#linear-gradient-2);}.cls-4{fill:url(#linear-gradient-3);}.cls-5{fill:url(#linear-gradient-4);}</style><linearGradient id="linear-gradient" x1="531.849" y1="499.7309" x2="878.3738" y2="661.3181" gradientTransform="matrix(0.9063, -0.4226, 0.4226, 0.9063, -289.4453, 524.4837)" gradientUnits="userSpaceOnUse"><stop offset="0" stop-color="#2a83ff"/><stop offset="0.2003" stop-color="#2a7fff"/><stop offset="0.4165" stop-color="#2a72ff"/><stop offset="0.64" stop-color="#2a5cff"/><stop offset="0.8672" stop-color="#2a3eff"/><stop offset="1" stop-color="#2a29ff"/></linearGradient><linearGradient id="linear-gradient-2" x1="193.2766" y1="978.232" x2="365.2062" y2="978.232" gradientTransform="matrix(1, 0, 0, 1, 0, 0)" xlink:href="#linear-gradient"/><linearGradient id="linear-gradient-3" x1="836.4188" y1="889.4502" x2="1008.346" y2="889.4502" gradientTransform="matrix(1, 0, 0, 1, 0, 0)" xlink:href="#linear-gradient"/><linearGradient id="linear-gradient-4" x1="836.4188" y1="647.3485" x2="1316.1824" y2="647.3485" gradientTransform="matrix(1, 0, 0, 1, 0, 0)" xlink:href="#linear-gradient"/></defs><g id="Layer_2" data-name="Layer 2"><g id="Layer_1-2" data-name="Layer 1"><rect class="cls-1" width="1500" height="1500" rx="272.0738"/><path class="cls-2" d="M700.231,1064.1967a86.3382,86.3382,0,0,1-77.9818-49.6647L411.8708,563.3715a86.0182,86.0182,0,0,1,77.8354-122.319,86.347,86.347,0,0,1,77.9845,49.6619L778.0665,941.8723a86.0158,86.0158,0,0,1-77.8355,122.3244Z"/><circle class="cls-3" cx="279.2414" cy="978.232" r="85.9648"/><path class="cls-4" d="M1008.346,714.7207V978.216a85.9636,85.9636,0,1,1-171.9272,0V784.2019a69.5379,69.5379,0,0,1,69.4257-69.4812Z"/><path class="cls-5" d="M1316.1824,647.3483c0,113.7115-92.5116,206.2793-206.2786,206.2793H905.8445a69.4535,69.4535,0,0,1,0-138.9069h204.0593a67.4,67.4,0,1,0,0-134.8H905.8445a69.4257,69.4257,0,1,1,0-138.8513h204.0593C1223.6708,441.0694,1316.1824,533.5813,1316.1824,647.3483Z"/></g></g></svg>