<?xml version="1.0" encoding="UTF-8"?>
<svg version="1.1" xmlns="http://www.w3.org/2000/svg" width="16" height="16">
<path d="M0 0 C0.66 0.33 1.32 0.66 2 1 C2 4.96 2 8.92 2 13 C-1.96 13 -5.92 13 -10 13 C-11.1845131 9.44646071 -11.26641894 6.72986522 -11 3 C-8.75946291 -1.34104061 -4.26847229 -0.27101411 0 0 Z " fill="#605FEC" transform="translate(12,1)"/>
<path d="M0 0 C2.64 0 5.28 0 8 0 C8 2.64 8 5.28 8 8 C5.36 8 2.72 8 0 8 C0 5.36 0 2.72 0 0 Z " fill="#B8B9F7" transform="translate(4,4)"/>
<path d="M0 0 C0.33 0 0.66 0 1 0 C1 2.64 1 5.28 1 8 C-1.64 8 -4.28 8 -7 8 C-6.67 7.34 -6.34 6.68 -6 6 C-4.35 6 -2.7 6 -1 6 C-1.020625 5.195625 -1.04125 4.39125 -1.0625 3.5625 C-1 1 -1 1 0 0 Z " fill="#767CF3" transform="translate(13,6)"/>
</svg>
