<svg xmlns="http://www.w3.org/2000/svg" xmlns:xlink="http://www.w3.org/1999/xlink" width="697.4962" height="254.7712" viewBox="0 0 697.4962 254.7712"><defs><style>.cls-1{fill:#fff;}.cls-2{fill:url(#linear-gradient);}.cls-3{fill:url(#linear-gradient-2);}.cls-4{fill:url(#linear-gradient-3);}.cls-5{fill:url(#linear-gradient-4);}.cls-6{fill:url(#linear-gradient-5);}</style><linearGradient id="linear-gradient" x1="265.4565" y1="34.9849" x2="659.4916" y2="34.9849" gradientUnits="userSpaceOnUse"><stop offset="0" stop-color="#2a83ff"/><stop offset="0.2003" stop-color="#2a7fff"/><stop offset="0.4165" stop-color="#2a72ff"/><stop offset="0.64" stop-color="#2a5cff"/><stop offset="0.8672" stop-color="#2a3eff"/><stop offset="1" stop-color="#2a29ff"/></linearGradient><linearGradient id="linear-gradient-2" x1="159.5086" y1="-82.4664" x2="223.5586" y2="-52.5994" gradientTransform="matrix(0.9063, -0.4226, 0.4226, 0.9063, -70.8056, 298.1013)" xlink:href="#linear-gradient"/><linearGradient id="linear-gradient-3" x1="0" y1="197.6502" x2="31.7786" y2="197.6502" xlink:href="#linear-gradient"/><linearGradient id="linear-gradient-4" x1="118.8753" y1="181.2402" x2="150.6535" y2="181.2402" xlink:href="#linear-gradient"/><linearGradient id="linear-gradient-5" x1="118.8753" y1="136.4913" x2="207.5525" y2="136.4913" xlink:href="#linear-gradient"/></defs><g id="Layer_2" data-name="Layer 2"><g id="Layer_1-2" data-name="Layer 1"><path class="cls-1" d="M250.2858,209.5153a33.4562,33.4562,0,0,1-14.2485-11.2529,28.5648,28.5648,0,0,1-5.1817-17.001H250.61a17.8224,17.8224,0,0,0,5.7481,11.9815q5.1006,4.6977,14.33,4.6963,9.5521,0,14.8964-4.6153a14.9987,14.9987,0,0,0,5.3433-11.9,13.0053,13.0053,0,0,0-3.3193-9.23,22.2436,22.2436,0,0,0-8.2578-5.5058,125.1138,125.1138,0,0,0-13.6817-4.209,127.9726,127.9726,0,0,1-17.8921-5.91,29.5445,29.5445,0,0,1-11.7387-9.31q-4.8582-6.315-4.858-16.8389a29.9278,29.9278,0,0,1,4.858-17.0019,31.0241,31.0241,0,0,1,13.601-11.1719A49.409,49.409,0,0,1,269.8776,98.36q16.3527,0,26.7973,8.1767,10.4438,8.1783,11.5772,22.4253H287.8507a14.7865,14.7865,0,0,0-5.8291-10.5244q-5.343-4.3718-14.0869-4.3716-7.935,0-12.9531,4.0479-5.0208,4.05-5.0195,11.6577a11.8271,11.8271,0,0,0,3.1572,8.501,22.29,22.29,0,0,0,8.0151,5.2627,124.1441,124.1441,0,0,0,13.2769,4.2089,139.1935,139.1935,0,0,1,18.2158,6.1534A30.34,30.34,0,0,1,304.609,163.37q4.9373,6.3971,4.9385,17.082a30.7051,30.7051,0,0,1-4.6147,16.1915,33.2812,33.2812,0,0,1-13.439,12.2246q-8.8272,4.6141-20.8066,4.6152A50.3608,50.3608,0,0,1,250.2858,209.5153Z"/><path class="cls-1" d="M354.5587,125.8854a39.0757,39.0757,0,0,1,18.2969-4.21,40.46,40.46,0,0,1,36.4317,21.8594,49.9927,49.9927,0,0,1,5.5039,23.8017,51.4309,51.4309,0,0,1-5.5039,24.044,41.1479,41.1479,0,0,1-15.1407,16.5156,39.906,39.906,0,0,1-21.291,5.91,38.6981,38.6981,0,0,1-18.1348-4.1289,40.5739,40.5739,0,0,1-12.9536-10.2812v55.375h-18.459V123.1325h18.459v13.1152A37.5254,37.5254,0,0,1,354.5587,125.8854Zm37.6465,25.502a26.136,26.136,0,0,0-10.039-10.2012,26.9894,26.9894,0,0,0-13.3584-3.48,26.203,26.203,0,0,0-13.1963,3.5615,26.5114,26.5114,0,0,0-10.04,10.3633,32.2938,32.2938,0,0,0-3.8047,16.0293,32.7566,32.7566,0,0,0,3.8047,16.1113,26.322,26.322,0,0,0,23.2359,14.0058,26.046,26.046,0,0,0,13.3584-3.6435,26.8655,26.8655,0,0,0,10.039-10.6055,33.2672,33.2672,0,0,0,3.8047-16.1914A31.8865,31.8865,0,0,0,392.2052,151.3874Z"/><path class="cls-1" d="M424.4249,143.5349a40.6967,40.6967,0,0,1,36.5127-21.8594,38.9556,38.9556,0,0,1,18.377,4.1289,37.3276,37.3276,0,0,1,12.5488,10.2822V123.1325h18.62v89.2168h-18.62V199.072a36.6749,36.6749,0,0,1-12.791,10.5244,41.3957,41.3957,0,0,1-39.5078-1.7,41.8789,41.8789,0,0,1-15.14-16.5156,50.7877,50.7877,0,0,1-5.5859-24.044A49.371,49.371,0,0,1,424.4249,143.5349Zm63.6338,8.0957a26.7352,26.7352,0,0,0-9.958-10.3633,26.0741,26.0741,0,0,0-13.2773-3.5615,26.1749,26.1749,0,0,0-23.2354,13.6816,31.8457,31.8457,0,0,0-3.8047,15.9492,33.2239,33.2239,0,0,0,3.8047,16.1914,26.82,26.82,0,0,0,10.0391,10.6055,25.7427,25.7427,0,0,0,13.1963,3.6435,26.0465,26.0465,0,0,0,13.2773-3.5625,26.5727,26.5727,0,0,0,9.958-10.4433,32.7936,32.7936,0,0,0,3.8047-16.1113A32.33,32.33,0,0,0,488.0587,151.6306Z"/><path class="cls-1" d="M526.1076,143.4538a39.7406,39.7406,0,0,1,15.4629-16.1113,44.7307,44.7307,0,0,1,22.6689-5.667q16.188,0,26.7969,7.6914,10.6025,7.6919,14.33,21.9394H585.45a21.07,21.07,0,0,0-7.7724-10.3623q-5.3423-3.7236-13.4385-3.7246-11.3364,0-18.0537,8.0157-6.7223,8.014-6.72,22.4248,0,14.414,6.72,22.5068,6.7162,8.0976,18.0537,8.0957,16.03,0,21.2109-14.0869h19.9161a39.8714,39.8714,0,0,1-14.5733,21.6162q-10.686,8.0142-26.5537,8.0146a44.2184,44.2184,0,0,1-22.6689-5.748,40.269,40.269,0,0,1-15.4629-16.1914q-5.5869-10.4443-5.586-24.207Q520.5216,153.9006,526.1076,143.4538Z"/><path class="cls-1" d="M696.8488,174.6227h-68.167q.8072,10.6861,7.9336,17.1631a25.0385,25.0385,0,0,0,17.4873,6.4766q14.8946,0,21.0488-12.4678h19.916a40.1945,40.1945,0,0,1-14.6533,20.1592q-10.607,7.8544-26.3115,7.8525a45.5493,45.5493,0,0,1-22.9121-5.748,40.8688,40.8688,0,0,1-15.8672-16.1914q-5.7495-10.4443-5.7481-24.207,0-13.7593,5.586-24.2061a39.2911,39.2911,0,0,1,15.706-16.1113,46.7445,46.7445,0,0,1,23.2354-5.667,45.4612,45.4612,0,0,1,22.5058,5.5049,38.9292,38.9292,0,0,1,15.3829,15.4638,46.5966,46.5966,0,0,1,5.5048,22.9112A57.946,57.946,0,0,1,696.8488,174.6227Zm-18.6211-14.8964q-.1626-10.2012-7.2861-16.3536-7.1265-6.1523-17.6485-6.1533a23.7062,23.7062,0,0,0-16.3545,6.0723q-6.8,6.0717-8.0957,16.4346Z"/><path class="cls-2" d="M265.4565,69.97c26.611-22.8842,58.1591-40.3238,91.7491-52.1466a320.2285,320.2285,0,0,1,210.5516-.047,302.5771,302.5771,0,0,1,48.4939,21.93c3.8064,2.2714,7.6371,4.4686,11.39,6.7882,3.6923,2.4361,7.4063,4.8063,11.0341,7.3q5.37,3.8673,10.6426,7.8066c3.4051,2.8018,6.8425,5.5221,10.1734,8.3687-4-1.8391-7.894-3.8045-11.82-5.6884L635.824,58.8422l-11.9254-5.1147L611.89,48.9507A435.58,435.58,0,0,0,563.0246,33.43a406.4275,406.4275,0,0,0-201.1024-.007A433.6366,433.6366,0,0,0,313.0565,48.947c-3.9874,1.5952-8.0369,3.0955-12.0062,4.7813l-5.96,2.5409c-1.9772.8711-4.0155,1.6392-5.9623,2.58L283.2129,61.56c-1.9707.9126-3.9953,1.7442-5.9286,2.7344Z"/><path class="cls-3" d="M93.703,213.54a15.9584,15.9584,0,0,1-14.4138-9.18l-38.8853-83.39A15.8993,15.8993,0,0,1,54.7906,98.3605,15.96,15.96,0,0,1,69.2049,107.54L108.09,190.93A15.8988,15.8988,0,0,1,93.703,213.54Z"/><circle class="cls-4" cx="15.8893" cy="197.6502" r="15.8893"/><path class="cls-5" d="M150.6535,148.9441v48.7032a15.8891,15.8891,0,1,1-31.7782,0V161.7866a12.8531,12.8531,0,0,1,12.8323-12.8425Z"/><path class="cls-6" d="M207.5525,136.4913A38.1716,38.1716,0,0,1,169.425,174.619H131.7076a12.8375,12.8375,0,0,1,0-25.6749H169.425a12.4579,12.4579,0,1,0,0-24.9158H131.7076a12.8323,12.8323,0,0,1,0-25.6646H169.425A38.1649,38.1649,0,0,1,207.5525,136.4913Z"/></g></g></svg>