<?xml version="1.0" encoding="UTF-8"?>
<svg xmlns="http://www.w3.org/2000/svg" xmlns:xlink="http://www.w3.org/1999/xlink" viewBox="0 0 416.5 230.85">
  <defs>
    <style>
      .cls-1 {
        fill: url(#linear-gradient-3);
      }

      .cls-2 {
        fill: url(#linear-gradient-2);
      }

      .cls-3 {
        fill: url(#linear-gradient);
      }

      .cls-4 {
        isolation: isolate;
      }

      .cls-5 {
        mix-blend-mode: color;
      }
    </style>
    <linearGradient id="linear-gradient" x1="-791.91" y1="2853.96" x2="-727.87" y2="2883.78" gradientTransform="translate(-449.49 -2787.47) rotate(-25)" gradientUnits="userSpaceOnUse">
      <stop offset="0" stop-color="#2a83ff"/>
      <stop offset=".2" stop-color="#2a7fff"/>
      <stop offset=".4" stop-color="#2a72ff"/>
      <stop offset=".6" stop-color="#2a5cff"/>
      <stop offset=".9" stop-color="#2a3eff"/>
      <stop offset="1" stop-color="#2a29ff"/>
    </linearGradient>
    <linearGradient id="linear-gradient-2" x1="0" y1="1933.45" x2="31.8" y2="1933.45" gradientTransform="translate(0 -1758)" xlink:href="#linear-gradient"/>
    <linearGradient id="linear-gradient-3" x1="115.1" y1="1784.83" x2="416.5" y2="1784.83" gradientTransform="translate(0 -1758)" xlink:href="#linear-gradient"/>
  </defs>
  <g class="cls-4">
    <g id="Layer_2">
      <g id="Layer_1-2" data-name="Layer_1">
        <g id="Layer_1-2-2" class="cls-5">
          <path class="cls-3" d="M93.7,191.35c-6.2,0-11.8-3.6-14.4-9.2l-38.9-83.4c-3.7-8-.3-17.4,7.7-21.1,2.1-1,4.4-1.5,6.7-1.5,6.2,0,11.8,3.6,14.4,9.2l38.9,83.4c3.7,8,.3,17.4-7.7,21.1-2.1,1-4.4,1.5-6.7,1.5h0Z"/>
          <circle class="cls-2" cx="15.9" cy="175.45" r="15.9"/>
          <path d="M205,123.75c-2.8,5.2-7.2,9.4-13.2,12.7-6.1,3.3-13.8,4.9-23.3,4.9h-20.9v46.7h-18.9v-115h39.7c8.8,0,16.3,1.5,22.4,4.6,5.7,2.7,10.5,6.9,13.7,12.3,3.1,5.3,4.6,11.3,4.6,17.4s-1.4,11.5-4.1,16.5v-.1ZM184.5,120.95c3.5-3.3,5.3-7.9,5.3-13.8,0-12.6-7.1-18.9-21.3-18.9h-20.9v37.6h20.9c7.2,0,12.5-1.6,16.1-4.9h-.1Z"/>
          <path d="M218.3,117.55c7.2-13.9,21.7-22.5,37.3-22.3,6.5-.2,13,1.3,18.8,4.2,5,2.5,9.4,6.1,12.8,10.5v-13.2h19v91.2h-19v-13.6c-3.5,4.5-8,8.2-13.1,10.8-12.9,6.3-28.1,5.6-40.4-1.7-6.6-4.1-11.9-10-15.5-16.9-3.9-7.6-5.9-16-5.7-24.6-.2-8.5,1.8-16.8,5.7-24.3l.1-.1ZM283.4,125.85c-2.4-4.4-5.9-8.1-10.2-10.6-4.1-2.4-8.8-3.7-13.6-3.6-4.8,0-9.4,1.2-13.6,3.6-4.3,2.5-7.8,6.1-10.2,10.4-2.7,5-4,10.6-3.9,16.3-.1,5.8,1.2,11.5,3.9,16.6,2.4,4.5,5.9,8.2,10.3,10.8,4.1,2.4,8.7,3.7,13.5,3.7s9.5-1.2,13.6-3.6c4.3-2.6,7.8-6.2,10.2-10.7,2.7-5.1,4-10.7,3.9-16.5.1-5.7-1.2-11.4-3.9-16.4h0Z"/>
          <path d="M404.9,96.75l-55.9,134.1h-19.5l18.5-44.4-35.9-89.7h21l25.7,69.5,26.6-69.5h19.5,0Z"/>
          <path class="cls-1" d="M115.3,53.55c20.3-17.5,44.5-30.8,70.1-39.9,52.1-18.2,108.8-18.2,161,0,12.8,4.5,25.2,10.1,37.1,16.8,2.9,1.7,5.8,3.4,8.7,5.2,2.8,1.9,5.7,3.7,8.4,5.6,2.7,2,5.4,4,8.1,6,2.6,2.1,5.2,4.2,7.8,6.4-3.1-1.4-6-2.9-9-4.3l-9.1-4.2-9.1-3.9-9.2-3.7c-12.2-4.7-24.7-8.6-37.4-11.9-50.4-12.9-103.3-12.9-153.8,0-12.7,3.2-25.2,7.2-37.4,11.9-3,1.2-6.1,2.4-9.2,3.7l-4.6,1.9c-1.5.7-3.1,1.3-4.6,2l-4.5,2.1c-1.5.7-3.1,1.3-4.5,2.1l-9,4.3.2-.1Z"/>
        </g>
      </g>
    </g>
  </g>
</svg>